<?xml version="1.0" encoding="UTF-8" standalone="no"?>
<svg
   version="1.1"
   viewBox="40 12 266.89999 53.5"
   xml:space="preserve"
   id="svg114"
   sodipodi:docname="logo-grupo-libertas-casa-em-portugal.svg"
   inkscape:export-filename="libertas.png"
   inkscape:export-xdpi="96"
   inkscape:export-ydpi="96"
   width="266.89999"
   height="53.5"
   xmlns:inkscape="http://www.inkscape.org/namespaces/inkscape"
   xmlns:sodipodi="http://sodipodi.sourceforge.net/DTD/sodipodi-0.dtd"
   xmlns="http://www.w3.org/2000/svg"
   xmlns:svg="http://www.w3.org/2000/svg"><defs
   id="defs118" /><sodipodi:namedview
   id="namedview116"
   pagecolor="#505050"
   bordercolor="#eeeeee"
   borderopacity="1"
   inkscape:showpageshadow="0"
   inkscape:pageopacity="0"
   inkscape:pagecheckerboard="0"
   inkscape:deskcolor="#505050"
   showgrid="false" />
<style
   type="text/css"
   id="style2">
	.st0{fill:#005151;}
	.st1{fill:#2A6765;}
	.st2{fill:#77C19A;}
</style>


<g
   id="g112"
   inkscape:export-filename="libertas.svg"
   inkscape:export-xdpi="96"
   inkscape:export-ydpi="96"
   transform="translate(-13.2,-20.5)">
	<g
   id="g90">
		<path
   class="st0"
   d="m 116.8,84 c -0.7,1.1 -2.2,2 -4.4,2 -3,0 -4.9,-1.5 -4.9,-4.1 0,-2.5 1.8,-4.1 4.8,-4.1 1.9,0 3.2,0.7 4,1.5 l -1.1,0.8 c -0.7,-0.8 -1.6,-1.1 -2.9,-1.1 -2.2,0 -3.5,1 -3.5,2.9 0,1.9 1.4,2.9 3.6,2.9 1.4,0 2.5,-0.4 3,-1.2 v -0.9 h -3.2 v -1.1 h 4.5 V 84 Z"
   id="path58" />
		<path
   class="st0"
   d="m 127.8,85.7 -2.4,-2.8 h -3.3 v 2.8 h -1.3 V 78 h 5.2 c 1.8,0 3.1,0.9 3.1,2.5 0,1.3 -0.9,2.1 -2.3,2.4 l 2.5,2.9 h -1.5 z M 126,81.8 c 1.1,0 1.9,-0.4 1.9,-1.3 0,-1 -0.7,-1.3 -1.9,-1.3 h -3.8 v 2.6 z"
   id="path60" />
		<path
   class="st0"
   d="m 141.5,78 v 4.1 c 0,2.3 -1.5,3.9 -4.2,3.9 -2.7,0 -4.2,-1.6 -4.2,-3.9 V 78 h 1.3 v 4 c 0,1.7 1,2.8 2.9,2.8 1.9,0 2.9,-1 2.9,-2.8 v -4 z"
   id="path62" />
		<path
   class="st0"
   d="m 154.2,80.5 c 0,1.6 -1.2,2.5 -3.1,2.5 h -3.9 v 2.7 h -1.3 V 78 h 5.2 c 1.8,0 3.1,0.9 3.1,2.5 m -1.4,0 c 0,-1 -0.7,-1.4 -1.9,-1.4 h -3.8 v 2.8 h 3.8 c 1.2,0 1.9,-0.4 1.9,-1.4"
   id="path64" />
		<path
   class="st0"
   d="m 157.4,81.9 c 0,-2.5 1.8,-4.1 4.8,-4.1 3,0 4.8,1.5 4.8,4.1 0,2.5 -1.8,4.1 -4.8,4.1 -3,0 -4.8,-1.6 -4.8,-4.1 m 8.2,0 c 0,-1.9 -1.3,-2.9 -3.4,-2.9 -2.1,0 -3.4,1 -3.4,2.9 0,1.9 1.3,2.9 3.4,2.9 2.1,0 3.4,-1.1 3.4,-2.9"
   id="path66" />
		<rect
   x="176.5"
   y="78"
   class="st0"
   width="1.3"
   height="7.6999998"
   id="rect68" />
		<polygon
   class="st0"
   points="183.6,79.8 183.6,85.7 182.3,85.7 182.3,78 183.8,78 187.3,82.4 190.9,78 192.3,78 192.3,85.7 191,85.7 191,79.8 187.4,84.3 187.3,84.3 "
   id="polygon70" />
		<path
   class="st0"
   d="m 196.3,81.9 c 0,-2.5 1.8,-4.1 4.8,-4.1 3,0 4.8,1.5 4.8,4.1 0,2.5 -1.8,4.1 -4.8,4.1 -3,0 -4.8,-1.6 -4.8,-4.1 m 8.2,0 c 0,-1.9 -1.3,-2.9 -3.4,-2.9 -2.1,0 -3.4,1 -3.4,2.9 0,1.9 1.3,2.9 3.4,2.9 2.1,0 3.4,-1.1 3.4,-2.9"
   id="path72" />
		<path
   class="st0"
   d="m 218.4,83.6 c 0,1.4 -1.1,2.1 -3,2.1 h -5.5 V 78 h 5.2 c 1.7,0 2.8,0.7 2.8,2 0,0.9 -0.5,1.7 -1.7,1.8 1.2,0 2.2,0.5 2.2,1.8 m -7.2,-2.3 h 3.7 c 1,0 1.7,-0.2 1.7,-1.1 0,-0.9 -0.7,-1.1 -1.7,-1.1 h -3.7 z m 5.8,2.2 c 0,-0.9 -0.7,-1.1 -1.9,-1.1 h -4 v 2.3 h 4 c 1.2,-0.1 1.9,-0.4 1.9,-1.2"
   id="path74" />
		<rect
   x="222.3"
   y="78"
   class="st0"
   width="1.3"
   height="7.6999998"
   id="rect76" />
		<polygon
   class="st0"
   points="235.2,84.6 235.2,85.7 228.2,85.7 228.2,78 229.5,78 229.5,84.6 "
   id="polygon78" />
		<rect
   x="238.8"
   y="78"
   class="st0"
   width="1.3"
   height="7.6999998"
   id="rect80" />
		<path
   class="st0"
   d="M 250.9,83.9 H 246 l -1,1.9 h -1.4 l 4.2,-7.7 h 1.5 l 4.2,7.7 h -1.4 z m -0.6,-1.2 -1.9,-3.6 -1.9,3.6 z m -1.8,-5.6 h -1.1 l 1.7,-1.7 h 1.9 z"
   id="path82" />
		<path
   class="st0"
   d="m 263.8,85.7 -2.4,-2.8 h -3.2 v 2.8 h -1.3 V 78 h 5.2 c 1.8,0 3.1,0.9 3.1,2.5 0,1.3 -0.9,2.1 -2.3,2.4 l 2.5,2.9 h -1.6 z M 262,81.8 c 1.1,0 1.9,-0.4 1.9,-1.3 0,-1 -0.7,-1.3 -1.9,-1.3 h -3.8 v 2.6 z"
   id="path84" />
		<rect
   x="269.20001"
   y="78"
   class="st0"
   width="1.3"
   height="7.6999998"
   id="rect86" />
		<path
   class="st0"
   d="m 274.6,81.9 c 0,-2.5 1.8,-4.1 4.8,-4.1 3,0 4.8,1.5 4.8,4.1 0,2.5 -1.8,4.1 -4.8,4.1 -3,0 -4.8,-1.6 -4.8,-4.1 m 8.2,0 c 0,-1.9 -1.3,-2.9 -3.4,-2.9 -2.1,0 -3.4,1 -3.4,2.9 0,1.9 1.3,2.9 3.4,2.9 2.1,0 3.4,-1.1 3.4,-2.9"
   id="path88" />
	</g>
	<g
   id="g108">
		<polygon
   class="st0"
   points="126,62.6 126,64.9 108.3,64.9 108.3,44.8 110.7,44.8 110.7,62.6 "
   id="polygon92" />
		<rect
   x="135.7"
   y="44.799999"
   class="st0"
   width="2.4000001"
   height="20"
   id="rect94" />
		<path
   class="st0"
   d="m 171.9,59.4 c 0,3.7 -2.9,5.5 -7.5,5.5 h -13.9 v -20 h 13.3 c 4.1,0 7,1.7 7,5.1 0,2.3 -1.3,4.4 -4.3,4.6 3.1,0.2 5.4,1.4 5.4,4.8 m -19,-5.9 h 10.6 c 2.9,0 4.9,-0.7 4.9,-3.3 0,-2.5 -2,-3.3 -4.9,-3.3 h -10.6 z m 16.6,5.7 c 0,-2.5 -2,-3.5 -5.5,-3.5 h -11.1 v 7 H 164 c 3.4,0 5.5,-1 5.5,-3.5"
   id="path96" />
		<polygon
   class="st0"
   points="185.1,47.1 185.1,53.6 199.3,53.6 199.3,55.8 185.1,55.8 185.1,62.6 202.1,62.6 202.1,64.9 182.7,64.9 182.7,44.8 201.8,44.8 201.8,47.1 "
   id="polygon98" />
		<path
   class="st0"
   d="m 231.4,64.9 -6.6,-7.7 h -9.5 v 7.7 h -2.4 v -20 h 13.5 c 4.5,0 7.7,2.2 7.7,6.2 0,3.5 -2.5,5.7 -6.2,6.1 l 6.8,7.8 h -3.3 z M 226.1,55 c 3.2,0 5.4,-1.2 5.4,-4 0,-2.7 -2.1,-4 -5.4,-4 h -10.9 v 8 z"
   id="path100" />
		<polygon
   class="st0"
   points="241.6,44.8 262.9,44.8 262.9,47 253.4,47 253.4,64.9 251,64.9 251,47 241.6,47 "
   id="polygon102" />
		<path
   class="st0"
   d="M 285.5,59.5 H 272 l -2.9,5.4 h -2.7 l 11,-20 h 2.7 l 11,20 h -2.7 z m -1.2,-2.2 -5.6,-10.3 -5.6,10.3 z"
   id="path104" />
		<path
   class="st0"
   d="m 320.1,59.1 c 0,3.7 -3.8,6.4 -10.3,6.4 -4.4,0 -8.6,-1.4 -11.7,-4.1 l 1.7,-1.8 c 2.9,2.6 6.2,3.7 10.2,3.7 4.8,0 7.7,-1.5 7.7,-4 0,-2.4 -2.9,-3 -8.4,-3.5 -5.4,-0.5 -10.5,-1.6 -10.5,-5.6 0,-3.8 4.8,-5.9 10.1,-5.9 4.4,0 7.9,1.5 10.2,3.6 l -1.9,1.6 c -1.9,-1.9 -4.9,-2.9 -8.2,-2.9 -3.6,0 -7.8,1 -7.8,3.6 0,2.5 3.8,3 8.5,3.4 6.1,0.3 10.4,1.5 10.4,5.5"
   id="path106" />
	</g>
	<path
   class="st0"
   d="m 76.5,64.7 c -3.2,0 -6.4,0.7 -9.3,2.1 L 66.9,67 V 38.2 l 6.1,4 v 18.2 h 3.8 V 39.8 L 65,32.5 v 0 l -1.9,1.2 v 0 35.7 H 63 c -2.3,1.8 -4.2,4.1 -5.6,6.7 L 57,76.9 v -27 0 -7.7 l 1.7,-1.1 v -4.7 l -1.7,1 v 0 l -3.8,2.3 v 0 46.1 h 4.3 l 2.4,-6 C 62,74.5 66.6,70.4 72.1,69 73.5,68.6 75,68.4 76.6,68.4 h 12.1 l -1.3,3.2 C 84.8,77.7 79,81.7 72.7,82 l -5.6,0.1 v -5.3 c -1.6,1.6 -2.9,3.5 -3.8,5.6 v 3.4 h 0.1 9.5 C 80.7,85.5 87.8,80.5 91,73.1 l 3.5,-8.4 v -0.1 h -18 z"
   id="path110" />
</g>
</svg>
