<svg xmlns="http://www.w3.org/2000/svg" xmlns:xlink="http://www.w3.org/1999/xlink" width="158.31" height="173.19" viewBox="0 0 158.31 173.19"><defs><style>.a{fill:url(#a);}.b{fill:url(#b);}.c,.d{fill-rule:evenodd;}.c{fill:url(#c);}</style><linearGradient id="a" x1="71.84" y1="43.74" x2="113.88" y2="43.74" gradientUnits="userSpaceOnUse"><stop offset="0" stop-color="#5a7d00"/><stop offset="1" stop-color="#8ab43c"/></linearGradient><linearGradient id="b" x1="29.08" y1="57.05" x2="69.81" y2="57.05" gradientUnits="userSpaceOnUse"><stop offset="0" stop-color="#fce800"/><stop offset="1" stop-color="#f6c000"/></linearGradient><linearGradient id="c" x1="80.64" y1="83.7" x2="80.64" y2="110.02" gradientUnits="userSpaceOnUse"><stop offset="0" stop-color="#1d2e86"/><stop offset="1" stop-color="#0072c3"/></linearGradient></defs><polygon class="a" points="71.84 9.99 113.88 0 107.29 87.48 71.84 81.78 71.84 9.99"/><polygon class="b" points="69.81 23.16 29.08 13.45 34.35 100.65 69.81 95.08 69.81 23.16"/><path class="c" d="M109.2,84.77c10,2.65,16.27,6.52,16.27,10.81,0,8-21.61,14.44-48.11,14.44-17.69,0-33.2-2.89-41.56-7.18l36.39-6V83.7l36.64,6Z"/><path class="d" d="M0,147.74V123.82H13.31l6.15,14.83,6-14.83H37.8v23.92H30.12V128.48l-8,19.26H16L7.7,128.48v19.26Zm53-3.3a4.09,4.09,0,0,0,3.25-1.33,5.41,5.41,0,0,0,1.17-3.71,5.5,5.5,0,0,0-1.17-3.73A4.05,4.05,0,0,0,53,134.33a3.83,3.83,0,0,0-3.12,1.33,5.5,5.5,0,0,0-1.13,3.71,5.66,5.66,0,0,0,1.1,3.74A3.81,3.81,0,0,0,53,144.44Zm.11,3.7q-6,0-9.1-2.2a8.44,8.44,0,0,1,0-13.06q3.12-2.25,9.06-2.25t9.05,2.25a7.57,7.57,0,0,1,3.1,6.56,7.47,7.47,0,0,1-3.1,6.48Q59,148.14,53.08,148.14Zm15-.4V133.86a12.59,12.59,0,0,0-.08-1.56,8.68,8.68,0,0,0-.21-1.23h7.69a4.4,4.4,0,0,1,.21,1c0,.42.06,1,.06,1.66a9.61,9.61,0,0,1,3.12-2.33,8.74,8.74,0,0,1,3.69-.77,7.72,7.72,0,0,1,5.69,1.93,7.61,7.61,0,0,1,2,5.65v9.5H82.57v-9.26a4.27,4.27,0,0,0-.73-2.79,2.88,2.88,0,0,0-2.32-.87A3.32,3.32,0,0,0,76.73,136a5.65,5.65,0,0,0-.93,3.52v8.24Zm28.26-5.18v-7.85H92.05v-4.05h4.34v-3l7.6-2.42v5.47h4.36v4.05H104v6.41a2.28,2.28,0,0,0,.69,1.89,3.93,3.93,0,0,0,2.38.54c.25,0,.51,0,.81,0l.94-.08v4c-1,.21-2,.38-3,.49a21.89,21.89,0,0,1-2.59.17q-3.7,0-5.29-1.28C96.92,146,96.39,144.58,96.39,142.56Zm15.45-13.86v-4.88h7.7v4.88Zm0,19V131.07h7.7v16.67Zm7.51,1.76h.16a10.12,10.12,0,0,0,1,.07,2.77,2.77,0,0,0,2.24-.75,5.09,5.09,0,0,0,.61-3V131.07h7.71V147.7c0,2.31-.63,4-1.87,5s-3.23,1.58-6,1.58c-.42,0-.92,0-1.47-.07s-1.36-.12-2.41-.24Zm4-20.75v-4.93h7.71v4.93Zm22.69,15.69a4.08,4.08,0,0,0,3.24-1.33,5.41,5.41,0,0,0,1.17-3.71,5.5,5.5,0,0,0-1.17-3.73,4.05,4.05,0,0,0-3.21-1.34,3.84,3.84,0,0,0-3.12,1.33,5.56,5.56,0,0,0-1.13,3.71,5.66,5.66,0,0,0,1.1,3.74A3.82,3.82,0,0,0,146.06,144.44Zm.1,3.7c-4,0-7-.73-9.09-2.2a8.44,8.44,0,0,1,0-13.06q3.12-2.25,9.06-2.25t9.05,2.25a7.57,7.57,0,0,1,3.1,6.56,7.47,7.47,0,0,1-3.1,6.48Q152.1,148.14,146.16,148.14Z"/><path class="d" d="M11.52,161.32a5.47,5.47,0,0,0-1.81-1.65,4.75,4.75,0,0,0-2.29-.53A4.6,4.6,0,0,0,4,160.63a4.94,4.94,0,0,0-1.43,3.54A5.17,5.17,0,0,0,4,167.85a4.56,4.56,0,0,0,3.44,1.5,4.8,4.8,0,0,0,2.26-.53,4.87,4.87,0,0,0,1.76-1.55h1.4a6.13,6.13,0,0,1-2.21,2.38,5.93,5.93,0,0,1-3.12.84,5.94,5.94,0,0,1-4.43-1.82,6.19,6.19,0,0,1-1.77-4.52,6,6,0,0,1,1.88-4.44,5.87,5.87,0,0,1,1.93-1.3A6,6,0,0,1,7.44,158a6,6,0,0,1,5.5,3.35Zm11.54,4.32a3.55,3.55,0,0,0-1-2.53A3.2,3.2,0,0,0,19.65,162a3.29,3.29,0,0,0-2.49,1.08,3.72,3.72,0,0,0-1,2.68,3.52,3.52,0,0,0,1,2.57,3.3,3.3,0,0,0,2.46,1A3.18,3.18,0,0,0,22,168.3,3.75,3.75,0,0,0,23.06,165.64Zm0,3.17A3.71,3.71,0,0,1,21.59,170a4.55,4.55,0,0,1-2,.45,4.47,4.47,0,0,1-3.33-1.37,5,5,0,0,1,0-6.79,4.57,4.57,0,0,1,3.4-1.38,4.3,4.3,0,0,1,1.93.43,3.74,3.74,0,0,1,1.45,1.23v-1.46H24.2v9.1H23.06Zm-5.65-8.87,1.66-2.9h1.25l1.66,2.9h-.76l-1.53-2.19-1.52,2.19Zm16.69,2.63a3.66,3.66,0,0,1,1.38-1.19,4.08,4.08,0,0,1,1.84-.41,3.19,3.19,0,0,1,2.7,1.11,6,6,0,0,1,.84,3.58v4.59H39.74v-4.83a4.24,4.24,0,0,0-.6-2.57,2.29,2.29,0,0,0-1.94-.76,2.77,2.77,0,0,0-1.37.32,2.32,2.32,0,0,0-.93.91,2.76,2.76,0,0,0-.3.85,10.1,10.1,0,0,0-.09,1.65v4.43h-1.1v-5.09a3.54,3.54,0,0,0-.64-2.33,2.46,2.46,0,0,0-2-.74,2.89,2.89,0,0,0-1.4.32,2.35,2.35,0,0,0-.94.91,2.53,2.53,0,0,0-.31.85,10.44,10.44,0,0,0-.08,1.65v4.43H26.94v-9.1h1.15v1a3.18,3.18,0,0,1,1.22-.91,4,4,0,0,1,1.61-.31,4.06,4.06,0,0,1,1.88.43A3.23,3.23,0,0,1,34.1,162.57Zm17.22,3.07a3.59,3.59,0,0,0-1-2.53A3.22,3.22,0,0,0,47.9,162a3.33,3.33,0,0,0-2.49,1.08,3.76,3.76,0,0,0-1,2.68,3.52,3.52,0,0,0,1,2.57,3.3,3.3,0,0,0,2.46,1,3.19,3.19,0,0,0,2.42-1.1A3.79,3.79,0,0,0,51.32,165.64Zm0,3.17A3.81,3.81,0,0,1,49.84,170a4.54,4.54,0,0,1-2,.45,4.44,4.44,0,0,1-3.33-1.37,4.94,4.94,0,0,1,0-6.79A4.59,4.59,0,0,1,47.94,161a4.23,4.23,0,0,1,1.92.43,3.77,3.77,0,0,1,1.46,1.23v-1.46h1.14v9.1H51.32Zm5.06,1.44H55.19v-9.1h1.1v1a3,3,0,0,1,.94-.89,2.65,2.65,0,0,1,1.19-.29v1.26a2.26,2.26,0,0,0-1.58.66,2.81,2.81,0,0,0-.47,1.81ZM68,165.64a3.56,3.56,0,0,0-1-2.53A3.19,3.19,0,0,0,64.62,162a3.31,3.31,0,0,0-2.49,1.08,3.71,3.71,0,0,0-1,2.68,3.55,3.55,0,0,0,1,2.57,3.33,3.33,0,0,0,2.47,1A3.21,3.21,0,0,0,67,168.3,3.79,3.79,0,0,0,68,165.64Zm0,3.17A3.81,3.81,0,0,1,66.56,170a4.55,4.55,0,0,1-2,.45,4.47,4.47,0,0,1-3.33-1.37,5,5,0,0,1,0-6.79A4.59,4.59,0,0,1,64.66,161a4.26,4.26,0,0,1,1.92.43A3.77,3.77,0,0,1,68,162.61v-1.46h1.14v9.1H68ZM77,170.25v-12H78.7l4.17,10.46L87,158.21h1.75v12H87.63V159.61L83.4,170.25H82.33L78.1,159.61v10.64Zm14.61-9.1h1.15V166a4.29,4.29,0,0,0,.61,2.63,2.35,2.35,0,0,0,2,.77,2.87,2.87,0,0,0,1.38-.31,2.49,2.49,0,0,0,1-.92,2.61,2.61,0,0,0,.3-.84,10.63,10.63,0,0,0,.09-1.68v-4.48h1.17v9.1H98v-1a3.23,3.23,0,0,1-1.18.94,3.91,3.91,0,0,1-1.58.29,3.48,3.48,0,0,1-2.84-1.07,5.59,5.59,0,0,1-.87-3.52Zm10.4,0h1.13v1a3.25,3.25,0,0,1,1.25-.92A3.92,3.92,0,0,1,106,161a4.09,4.09,0,0,1,1.79.37,2.91,2.91,0,0,1,1.23,1.07,3.42,3.42,0,0,1,.46,1.15,10.37,10.37,0,0,1,.13,1.94v4.75h-1.15v-5.09a3.63,3.63,0,0,0-.62-2.35,2.43,2.43,0,0,0-2-.72,2.83,2.83,0,0,0-1.39.32,2.31,2.31,0,0,0-1,.91,2.76,2.76,0,0,0-.3.85,10.1,10.1,0,0,0-.09,1.65v4.43H102Zm10.38-1.07v-1.87h1.17v1.87Zm0,10.17v-9.1h1.17v9.1Zm11.24-6.31a3.84,3.84,0,0,0-1.31-1.46,3.44,3.44,0,0,0-1.85-.48,3.14,3.14,0,0,0-2.38,1.07,3.77,3.77,0,0,0-1,2.64,3.72,3.72,0,0,0,1,2.62,3.18,3.18,0,0,0,2.43,1,3.41,3.41,0,0,0,1.88-.52,3.22,3.22,0,0,0,1.23-1.46h1.29a4.7,4.7,0,0,1-1.66,2.29,4.5,4.5,0,0,1-2.68.81,4.42,4.42,0,0,1-3.33-1.4,4.66,4.66,0,0,1-1.36-3.38,4.74,4.74,0,0,1,1.37-3.42,4.55,4.55,0,0,1,3.35-1.4,4.41,4.41,0,0,1,2.61.8,4.79,4.79,0,0,1,1.7,2.24Zm3.91-3.86v-1.87h1.17v1.87Zm0,10.17v-9.1h1.17v9.1Zm3.92-9.1h1.15v1.49a3.51,3.51,0,0,1,1.42-1.23,4.41,4.41,0,0,1,2-.46,4.61,4.61,0,0,1,3.42,1.37,5,5,0,0,1,0,6.8,4.47,4.47,0,0,1-3.33,1.37,4.62,4.62,0,0,1-2-.43,4,4,0,0,1-1.48-1.25v4.38h-1.15Zm1.15,4.49a3.75,3.75,0,0,0,1,2.66,3.18,3.18,0,0,0,2.42,1.1,3.29,3.29,0,0,0,2.45-1,3.55,3.55,0,0,0,1-2.57,3.75,3.75,0,0,0-1-2.68A3.35,3.35,0,0,0,136,162a3.19,3.19,0,0,0-2.37,1.09A3.52,3.52,0,0,0,132.57,165.64Zm18.15,0a3.56,3.56,0,0,0-1-2.53A3.19,3.19,0,0,0,147.3,162a3.29,3.29,0,0,0-2.49,1.08,3.71,3.71,0,0,0-1,2.68,3.55,3.55,0,0,0,1,2.57,3.32,3.32,0,0,0,2.47,1,3.21,3.21,0,0,0,2.42-1.1A3.79,3.79,0,0,0,150.72,165.64Zm0,3.17a3.81,3.81,0,0,1-1.48,1.23,4.55,4.55,0,0,1-2,.45,4.47,4.47,0,0,1-3.33-1.37,4.69,4.69,0,0,1-1.33-3.38,4.68,4.68,0,0,1,4.76-4.79,4.24,4.24,0,0,1,1.93.43,3.77,3.77,0,0,1,1.46,1.23v-1.46h1.14v9.1h-1.14Zm3.91,1.44V158.2h1.16v12.05Z"/></svg>